<svg width="579" height="372" viewBox="0 0 579 372" fill="none" xmlns="http://www.w3.org/2000/svg">
<path d="M220.243 176.159C215.563 182.412 206.899 180.205 205.874 171.468C199.346 173.021 193.603 176.756 189.667 182.008C188.532 183.661 188.641 184.713 187.978 184.971C187.266 185.051 186.544 185.008 185.848 184.845C174.893 184.23 167.008 192.336 168.807 201.506C165.889 202.224 163.313 203.878 161.503 206.196C159.864 208.185 158.626 210.451 157.852 212.878C158.667 212.837 184.706 211.558 189.518 211.271C189.454 208.829 189.423 206.385 189.426 203.942C189.107 199.788 191.015 195.367 195.4 195.361C196.387 195.429 197.346 195.711 198.204 196.185C199.063 196.659 199.8 197.313 200.36 198.099C201.586 199.893 202.481 201.876 203.007 203.963L205.159 210.216C208.226 209.984 220.03 209.002 227.111 208.249C227.307 197.195 224.961 186.237 220.243 176.159ZM201.23 191.928C200.316 190.938 199.741 189.701 199.583 188.385C199.424 187.069 199.69 185.738 200.345 184.573C201.015 183.531 201.959 182.679 203.081 182.103C204.204 181.526 205.464 181.245 206.735 181.289C206.83 181.333 206.936 181.347 207.039 181.327C208.541 181.605 209.905 182.353 210.92 183.456C211.934 184.558 212.542 185.953 212.648 187.422C212.652 188.699 212.261 189.947 211.524 191.008C210.788 192.069 209.74 192.894 208.514 193.378C207.288 193.862 205.94 193.982 204.642 193.724C203.345 193.466 202.157 192.841 201.23 191.928Z" fill="#2755A0"/>
<path d="M207.046 181.327C206.942 181.346 206.836 181.333 206.741 181.289C205.47 181.245 204.21 181.526 203.087 182.102C201.965 182.679 201.021 183.531 200.351 184.572C199.857 185.427 199.574 186.38 199.526 187.357C199.478 188.334 199.665 189.308 200.073 190.204C200.481 191.1 201.098 191.892 201.877 192.52C202.656 193.147 203.575 193.593 204.562 193.821C205.549 194.049 206.578 194.054 207.567 193.836C208.557 193.617 209.481 193.181 210.266 192.561C211.052 191.942 211.678 191.155 212.095 190.264C212.512 189.372 212.71 188.399 212.672 187.422C212.565 185.95 211.955 184.553 210.937 183.451C209.919 182.348 208.551 181.601 207.046 181.327Z" fill="#FC9070"/>
<path d="M78.9699 370.957L91.1634 339.137C91.6777 337.797 89.4532 337.22 88.942 338.551L76.7485 370.368C76.2342 371.711 78.4587 372.288 78.9699 370.957Z" fill="#CCEAFF"/>
<path d="M177.691 232.403C177.158 231.66 176.796 230.817 176.628 229.929C176.461 229.042 176.491 228.13 176.719 227.254C176.946 226.379 177.364 225.56 177.946 224.853C178.528 224.146 179.26 223.566 180.092 223.153C181.105 222.884 182.169 222.838 183.203 223.019C184.237 223.199 185.215 223.602 186.066 224.197C187.46 224.886 188.899 225.554 190.302 226.267C189.772 218.981 189.693 214.566 189.553 211.265C184.742 211.559 155.313 212.992 154.026 213.068C149.984 213.306 145.974 213.857 141.954 214.303C132.874 215.224 123.961 217.294 115.443 220.459C99.3146 226.642 89.6073 240.236 89.1387 251.036C89.2847 249.655 91.5396 249.655 91.4301 251.068C90.3194 265.609 100.504 277.453 112.327 286.632C119.84 292.475 127.831 297.813 135.907 302.911L164.892 257.878C157.589 254.472 150.184 251.266 142.678 248.26C141.327 247.72 141.92 245.577 143.287 246.123C156.443 251.351 169.312 257.228 181.842 263.73C183.884 258.013 188.865 246.342 188.896 243.209C187.274 238.946 180.479 237.073 177.691 232.403Z" fill="#FFC431"/>
<path d="M332.686 242.115L291.188 193.382C290.98 193.17 290.864 192.889 290.864 192.598C290.864 192.306 290.98 192.025 291.188 191.813C277.641 204.469 223.982 208.794 205.186 210.215L209.784 223.595C213.636 220.725 217.473 217.826 221.597 215.322C226.706 212.224 233.182 208.468 238.285 211.476C239.166 212.113 239.867 212.953 240.325 213.918C240.782 214.883 240.982 215.944 240.905 217.002C240.631 221.731 236.934 225.366 233.498 228.315C227.674 233.323 227.26 230.954 240.172 228.978C244.736 228.28 252.274 227.219 253.804 233.021C255.265 240.836 241.915 243.575 231.499 247.817C227.774 266.095 221.225 300.894 212.979 317.472C209.327 324.84 204.9 330.923 196.513 330.439C187.878 329.761 179.426 327.666 171.523 324.244C153.496 316.532 136.435 306.876 120.665 295.462C108.408 286.898 96.9292 278.458 91.4243 265.019C89.9837 261.492 89.1829 257.753 89.0568 253.964C88.9899 258.473 89.1238 263.003 89.1238 267.503C89.1238 320.914 89.0416 332.611 89.1968 335.285C89.2668 336.549 89.6594 336.531 90.4992 336.616C95.3255 337.106 122.476 337.542 271.606 336.519C271.911 336.516 272.202 336.399 272.417 336.192C272.633 335.984 272.756 335.704 272.759 335.411C272.899 316.514 273.478 269.103 273.484 264.292C295.412 260.944 316.57 255.301 334.083 242.288C334.116 242.257 334.146 242.225 334.174 242.191C333.96 242.357 333.69 242.442 333.415 242.428C333.14 242.414 332.881 242.302 332.686 242.115Z" fill="#FFC431"/>
<path d="M287.928 371.224C288.588 372.502 290.575 371.379 289.915 370.104L273.464 338.284C272.804 337.006 270.817 338.129 271.477 339.404L287.928 371.224Z" fill="#CCEAFF"/>
<path d="M182.248 348.495C182.129 348.311 181.959 348.164 181.756 348.072C181.553 347.979 181.328 347.945 181.105 347.973C180.883 348.002 180.674 348.091 180.503 348.231C180.332 348.37 180.207 348.555 180.142 348.761C178.03 355.097 172.899 369.473 172.586 370.368C172.114 371.725 174.336 372.305 174.807 370.954C177.013 364.648 181.502 351.763 181.502 351.763C184.344 356.615 191.894 369.611 192.892 371.221C192.968 371.346 193.07 371.456 193.19 371.544C193.311 371.632 193.448 371.697 193.594 371.733C193.74 371.77 193.893 371.779 194.042 371.759C194.192 371.74 194.336 371.691 194.467 371.618C194.597 371.544 194.712 371.447 194.803 371.331C194.894 371.215 194.961 371.083 194.999 370.942C195.037 370.801 195.047 370.654 195.026 370.51C195.005 370.365 194.956 370.226 194.879 370.101C190.715 362.873 186.505 355.671 182.248 348.495Z" fill="#CCEAFF"/>
<path d="M364.505 174.076C362.632 157.775 355.75 142.385 344.74 129.876C334.029 116.681 318.708 107.682 301.627 104.552C276.978 99.4219 250.086 105.622 225.681 113.271C225.28 113.397 218.621 115.484 218.098 115.757C210.736 112.717 203.143 110.226 195.385 108.308C193.996 107.989 192.553 107.962 191.153 108.227C189.753 108.493 188.428 109.045 187.269 109.847C186.105 110.986 185.348 112.453 185.109 114.034C184.869 115.616 185.159 117.23 185.936 118.642C187.897 121.801 190.895 124.241 194.457 125.575C198.805 127.55 203.319 129.168 207.949 130.412C201.635 132.958 195.538 135.978 189.715 139.445C187.709 140.523 185.883 141.887 184.299 143.49C179.393 148.665 181.907 156.211 188.623 155.944C195.523 155.628 202.294 154.021 208.558 151.215C206.845 156.917 204.666 167.87 206.303 173.657C207.971 179.552 214.455 181.572 218.542 177.887C224.762 172.921 221.759 161.177 231.542 149.975C234.433 157.328 234.655 164.46 240.571 167.158C242.063 167.975 243.814 168.24 245.495 167.903C247.175 167.566 248.671 166.649 249.7 165.325C252.153 162.1 251.066 157.885 250.309 154.267C249.594 150.829 248.884 147.389 248.178 143.948C257.692 143.368 267.225 144.73 276.153 147.946C281.103 149.702 285.604 152.461 289.351 156.038C292.59 159.342 294.996 163.32 296.383 167.664C297.77 172.009 298.1 176.602 297.348 181.089C296.466 185.178 294.319 188.914 291.189 191.804C290.978 192.014 290.86 192.295 290.86 192.588C290.86 192.881 290.978 193.162 291.189 193.372C291.189 193.372 330.992 240.111 332.687 242.105C332.906 242.307 333.198 242.42 333.501 242.42C333.804 242.42 334.096 242.307 334.315 242.105C344.907 234.15 353.232 223.737 358.512 211.84C363.792 199.942 365.854 186.95 364.505 174.076ZM225.1 143.452L219.273 145.625C217.888 146.141 217.295 143.995 218.664 143.485L224.491 141.312C225.876 140.796 226.466 142.942 225.1 143.452ZM225.572 129.967L218.734 130.747C217.261 130.914 217.279 128.694 218.734 128.527L225.572 127.745C227.044 127.569 227.026 129.797 225.572 129.964V129.967ZM232.778 148.759C232.558 148.946 232.272 149.046 231.978 149.037C231.684 149.029 231.405 148.912 231.198 148.712C230.99 148.512 230.869 148.243 230.86 147.96C230.851 147.677 230.955 147.402 231.15 147.19C235.319 143.024 240.799 142.206 246.8 141.802C248.279 141.705 248.264 143.898 246.8 144.021C241.073 144.496 236.898 144.927 232.778 148.756V148.759ZM352.57 185.697V174.076C352.57 173.782 352.691 173.5 352.907 173.293C353.123 173.085 353.415 172.968 353.72 172.968C354.026 172.968 354.318 173.085 354.534 173.293C354.75 173.5 354.871 173.782 354.871 174.076C354.941 177.949 354.95 181.822 354.871 185.691C354.866 185.837 354.832 185.981 354.77 186.114C354.707 186.247 354.618 186.367 354.507 186.467C354.396 186.566 354.265 186.644 354.123 186.694C353.981 186.745 353.829 186.768 353.678 186.761C353.387 186.75 353.112 186.633 352.907 186.435C352.702 186.237 352.581 185.971 352.57 185.691V185.697Z" fill="#FC9070"/>
<path d="M380.594 199.606C380.531 199.884 380.582 200.174 380.735 200.417C380.888 200.66 381.132 200.838 381.416 200.913C381.701 200.988 382.005 200.955 382.265 200.821C382.525 200.687 382.722 200.462 382.815 200.192C387.183 184.893 386.205 168.635 380.031 153.925C379.483 152.614 377.259 153.186 377.81 154.511C382.429 165.612 384.087 177.652 382.633 189.53C382.185 192.928 381.504 196.294 380.594 199.606Z" fill="black"/>
<path d="M391.826 198.996C391.479 200.383 393.7 200.975 394.047 199.582C397.918 184.124 396.681 167.887 390.508 153.139C389.96 151.832 387.733 152.403 388.29 153.726C394.345 168.09 395.581 183.92 391.826 198.996Z" fill="black"/>
<path d="M87.2373 73.3723C86.1235 72.44 84.4986 74.0026 85.6093 74.9407L121.892 105.351C123.005 106.283 124.63 104.72 123.52 103.782L87.2373 73.3723Z" fill="black"/>
<path d="M354.878 185.692C354.949 181.823 354.949 177.951 354.878 174.077C354.878 173.783 354.757 173.501 354.541 173.294C354.325 173.086 354.032 172.969 353.727 172.969C353.422 172.969 353.13 173.086 352.914 173.294C352.698 173.501 352.577 173.783 352.577 174.077V185.692C352.589 185.987 352.722 186.265 352.946 186.465C353.17 186.666 353.467 186.773 353.773 186.762C354.064 186.754 354.341 186.639 354.547 186.44C354.752 186.24 354.871 185.973 354.878 185.692Z" fill="#FF4848"/>
<path d="M69.6439 112.926C69.3487 112.94 69.0705 113.064 68.8669 113.27C68.6633 113.477 68.5498 113.751 68.5498 114.035C68.5498 114.32 68.6633 114.594 68.8669 114.801C69.0705 115.007 69.3487 115.13 69.6439 115.145H121.631C121.927 115.13 122.205 115.007 122.408 114.801C122.612 114.594 122.725 114.32 122.725 114.035C122.725 113.751 122.612 113.477 122.408 113.27C122.205 113.064 121.927 112.94 121.631 112.926H69.6439Z" fill="black"/>
<path d="M122.208 126.667C123.425 125.875 122.281 123.955 121.046 124.752L85.8405 147.525C84.6233 148.317 85.7675 150.24 87.003 149.44L122.208 126.667Z" fill="black"/>
<path d="M91.4316 265.02C96.9273 278.444 108.381 286.881 120.672 295.462C125.59 298.894 130.593 302.211 135.681 305.412C135.421 305.26 135.233 305.016 135.156 304.733C135.079 304.45 135.118 304.149 135.267 303.893L135.906 302.9C127.829 297.802 119.838 292.463 112.325 286.62C100.521 277.441 90.3117 265.65 91.4285 251.057C91.5381 249.643 89.2984 249.643 89.1371 251.024C89.0554 251.999 89.031 252.978 89.0641 253.956C89.1862 257.748 89.9871 261.491 91.4316 265.02Z" fill="#FF4848"/>
<path d="M142.681 248.247C150.187 251.241 157.592 254.448 164.895 257.866L165.559 256.834C165.718 256.586 165.97 256.406 166.263 256.332C166.556 256.259 166.867 256.297 167.132 256.438C159.299 252.758 151.354 249.315 143.296 246.11C141.923 245.565 141.327 247.711 142.681 248.247Z" fill="#FF4848"/>
<path d="M224.488 141.313L218.661 143.485C217.294 143.996 217.888 146.142 219.269 145.626L225.097 143.453C226.466 142.943 225.876 140.797 224.488 141.313Z" fill="#FF4848"/>
<path d="M218.736 130.745L225.574 129.965C227.029 129.798 227.047 127.579 225.574 127.746L218.736 128.526C217.282 128.693 217.264 130.912 218.736 130.745Z" fill="#FF4848"/>
<path d="M231.151 147.188C230.956 147.4 230.853 147.675 230.862 147.958C230.871 148.241 230.991 148.51 231.199 148.71C231.407 148.91 231.686 149.026 231.98 149.035C232.273 149.044 232.559 148.944 232.779 148.756C236.839 144.986 240.795 144.52 246.802 144.019C248.265 143.896 248.28 141.703 246.802 141.799C240.788 142.192 235.311 143.022 231.151 147.188Z" fill="#FF4848"/>
<path d="M253.814 233.02C252.293 227.222 244.743 228.28 240.181 228.978C227.328 230.948 227.641 233.358 233.508 228.315C236.944 225.366 240.641 221.731 240.915 217.002C240.992 215.943 240.792 214.883 240.335 213.918C239.877 212.953 239.176 212.113 238.295 211.476C236.634 210.516 234.674 210.153 232.763 210.453C225.764 211.473 215.441 219.388 209.794 223.595L203.044 203.953C202.518 201.867 201.623 199.883 200.397 198.09C199.837 197.304 199.1 196.649 198.241 196.175C197.382 195.701 196.424 195.42 195.437 195.352C191.042 195.352 189.143 199.796 189.463 203.933C189.442 210.18 189.752 218.667 190.303 226.248C188.9 225.536 187.461 224.868 186.067 224.179C185.217 223.584 184.238 223.181 183.204 223C182.17 222.82 181.107 222.866 180.093 223.135C179.261 223.548 178.529 224.128 177.947 224.835C177.365 225.542 176.947 226.361 176.72 227.236C176.493 228.111 176.462 229.024 176.629 229.911C176.797 230.799 177.16 231.642 177.693 232.384C180.413 236.94 187.287 238.957 188.903 243.19C188.873 246.301 183.876 258.027 181.849 263.712C176.98 261.196 172.023 258.883 167.13 256.433C166.865 256.293 166.554 256.257 166.262 256.33C165.97 256.404 165.717 256.582 165.557 256.828L135.269 303.887C135.123 304.143 135.085 304.443 135.162 304.726C135.239 305.008 135.425 305.252 135.683 305.406C147.089 312.601 159.077 318.899 171.533 324.238C179.436 327.66 187.887 329.755 196.523 330.433C204.897 330.917 209.304 324.863 212.989 317.466C217.017 308.727 220.105 299.613 222.203 290.267C225.645 276.802 228.53 262.454 231.509 247.811C242.038 243.533 255.269 240.81 253.814 233.02ZM215.502 243.636C214.285 244.466 213.15 242.548 214.34 241.719C215.579 240.848 216.59 239.711 217.292 238.397C217.976 237.128 219.973 238.256 219.279 239.517C218.369 241.154 217.076 242.564 215.502 243.636ZM202.722 237.711C203.176 236.011 203.662 234.318 204.179 232.633C204.263 232.353 204.458 232.116 204.722 231.974C204.986 231.831 205.297 231.795 205.589 231.872C205.881 231.949 206.129 232.134 206.28 232.386C206.432 232.638 206.474 232.938 206.398 233.22C205.943 234.92 205.457 236.613 204.94 238.297C204.856 238.577 204.661 238.814 204.397 238.957C204.134 239.1 203.822 239.136 203.53 239.059C203.239 238.982 202.99 238.797 202.839 238.545C202.687 238.293 202.645 237.993 202.722 237.711ZM200.841 321.418C198.13 322.213 195.406 322.963 192.689 323.734C192.4 323.794 192.099 323.746 191.846 323.599C191.594 323.451 191.41 323.216 191.332 322.942C191.254 322.668 191.288 322.375 191.427 322.124C191.566 321.874 191.8 321.684 192.08 321.594C194.791 320.8 197.515 320.052 200.232 319.278C200.521 319.218 200.822 319.266 201.075 319.414C201.327 319.561 201.511 319.796 201.589 320.07C201.667 320.345 201.633 320.637 201.494 320.888C201.355 321.139 201.121 321.328 200.841 321.418Z" fill="#FC9070"/>
<path d="M577.097 81.1676C565.71 22.6403 500.014 -14.3541 431.728 5.32602C389.734 17.4249 355.122 48.8316 345.735 91.3844C344.569 96.6639 344.56 102.12 345.707 107.403C345.775 107.636 345.919 107.842 346.119 107.989C346.319 108.136 346.563 108.217 346.815 108.218H411.309C411.561 108.215 411.805 108.135 412.005 107.988C412.205 107.841 412.35 107.636 412.42 107.403C421.643 68.8371 464.392 56.5271 494.609 73.2287C506.216 79.6431 513.574 92.7153 508.665 105.236C504.195 116.652 490.273 126.892 479.696 134.907C466.783 144.571 455.504 156.105 446.262 169.099C433.636 187.094 428.858 207.026 430.082 221.508C430.089 221.8 430.213 222.079 430.428 222.286C430.643 222.492 430.932 222.612 431.235 222.619H497.622C497.927 222.618 498.219 222.5 498.435 222.292C498.65 222.084 498.772 221.802 498.772 221.508C498.706 219.312 498.862 217.114 499.238 214.947C500.907 208.558 504.377 202.737 509.265 198.128C526.756 180.632 558.008 161.87 571.2 132.553C578.441 116.375 580.495 98.4795 577.097 81.1676Z" fill="#CCEAFF"/>
<path d="M529.547 239.98C529.542 239.687 529.419 239.408 529.204 239.201C528.989 238.994 528.698 238.876 528.394 238.872H395.054C394.75 238.876 394.459 238.994 394.245 239.201C394.03 239.408 393.907 239.688 393.903 239.98V368.439C393.906 368.732 394.028 369.013 394.243 369.22C394.458 369.427 394.749 369.545 395.054 369.547C537.916 370.529 528.573 369.726 529.206 369.219C529.421 369.012 529.544 368.732 529.547 368.439C529.501 362.889 529.596 246.664 529.547 239.98Z" fill="#CCEAFF"/>
<path d="M0.935116 264.075C0.904686 264.16 0.731232 263.893 0.53952 266.001C0.0587183 271.313 -0.525545 291.688 0.883385 370.661C0.898565 370.945 1.02654 371.213 1.24088 371.409C1.45521 371.605 1.73955 371.715 2.03518 371.715C2.3308 371.715 2.61514 371.605 2.82948 371.409C3.04382 371.213 3.17179 370.945 3.18697 370.661V266.543C1.20899 264.629 1.01728 264.565 0.935116 264.075Z" fill="black"/>
<path d="M29.3747 239.335C29.3716 239.188 29.338 239.042 29.276 238.907C29.214 238.772 29.1248 238.65 29.0135 238.549C28.9022 238.447 28.7712 238.368 28.6279 238.316C28.4846 238.264 28.3319 238.239 28.1788 238.245C27.3846 238.265 28.7631 237.286 1.22043 263.073C1.01942 263.288 0.908203 263.567 0.908203 263.857C0.908203 264.146 1.01942 264.426 1.22043 264.641C27.6463 290.234 27.2507 289.929 27.5611 290.129C27.7208 290.261 27.9156 290.348 28.1237 290.38C28.3318 290.413 28.5451 290.388 28.7397 290.311C28.9344 290.233 29.1028 290.104 29.2262 289.94C29.3496 289.775 29.4231 289.581 29.4386 289.378C29.4812 289.188 29.3778 239.523 29.3747 239.335Z" fill="#FF4848"/>
<path d="M99.1853 185.18C99.4425 185.025 99.6287 184.782 99.7056 184.5C99.7826 184.217 99.7445 183.917 99.5992 183.661C99.4449 183.407 99.1922 183.222 98.8967 183.148C98.6011 183.073 98.2869 183.114 98.0229 183.262C75.4232 200.035 53.4757 217.114 32.1805 234.499C31.0454 235.422 32.6826 236.985 33.8085 236.067C55.2052 218.61 76.9975 201.648 99.1853 185.18Z" fill="#FFF0B3"/>
<path d="M70.3041 331.533C71.3053 332.588 72.9303 331.017 71.9321 329.964C56.4522 313.591 39.6332 297.03 35.5556 293.231C35.3356 293.043 35.0496 292.943 34.756 292.952C34.4624 292.961 34.1832 293.077 33.9755 293.277C33.7678 293.477 33.6471 293.746 33.6382 294.029C33.6293 294.312 33.7328 294.587 33.9275 294.799C48.2542 309.079 55.0067 315.35 70.3041 331.533Z" fill="#FFF0B3"/>
<path d="M232.78 82.3285C254.187 64.8638 275.979 47.9013 298.157 31.4411C298.415 31.2877 298.602 31.0444 298.679 30.7616C298.756 30.4789 298.718 30.1784 298.571 29.9225C298.495 29.7968 298.394 29.6868 298.273 29.5987C298.153 29.5107 298.016 29.4463 297.87 29.4093C297.724 29.3722 297.572 29.3633 297.422 29.383C297.272 29.4026 297.128 29.4505 296.998 29.5238C274.349 46.3319 252.401 63.4107 231.152 80.7601C230.02 81.6836 231.66 83.2461 232.78 82.3285Z" fill="#FFF0B3"/>
<path d="M202.71 237.711C202.634 237.993 202.676 238.293 202.827 238.545C202.979 238.798 203.227 238.982 203.519 239.059C203.811 239.137 204.122 239.1 204.386 238.957C204.65 238.815 204.845 238.578 204.928 238.298C205.446 236.615 205.932 234.922 206.386 233.22C206.462 232.938 206.42 232.638 206.269 232.386C206.117 232.134 205.869 231.949 205.577 231.872C205.285 231.795 204.974 231.832 204.71 231.974C204.446 232.117 204.251 232.354 204.168 232.634C203.65 234.318 203.164 236.011 202.71 237.711Z" fill="#FF4848"/>
<path d="M215.503 243.636C217.077 242.565 218.37 241.154 219.28 239.517C219.974 238.257 217.977 237.128 217.293 238.398C216.591 239.711 215.58 240.849 214.341 241.719C213.151 242.549 214.295 244.466 215.503 243.636Z" fill="#FF4848"/>
<path d="M192.676 323.734C195.394 322.963 198.117 322.213 200.828 321.418C201.108 321.328 201.342 321.138 201.481 320.888C201.62 320.637 201.655 320.344 201.577 320.07C201.499 319.796 201.314 319.561 201.062 319.414C200.81 319.266 200.508 319.218 200.22 319.278C197.502 320.052 194.779 320.799 192.067 321.594C191.787 321.684 191.554 321.873 191.415 322.124C191.275 322.375 191.241 322.668 191.319 322.942C191.397 323.216 191.581 323.451 191.834 323.598C192.086 323.746 192.388 323.794 192.676 323.734Z" fill="#FF4848"/>
</svg>
