<svg width="280" height="240" viewBox="0 0 280 240" fill="none" xmlns="http://www.w3.org/2000/svg">
<rect width="280" height="240" fill="white"/>
<path d="M69.02 138.09C69.02 138.517 68.9167 138.88 68.71 139.18C68.5033 139.473 68.2067 139.7 67.82 139.86C67.44 140.02 66.99 140.1 66.47 140.1C66.2033 140.1 65.9467 140.087 65.7 140.06C65.46 140.033 65.24 139.997 65.04 139.95C64.84 139.897 64.6633 139.833 64.51 139.76V138.9C64.75 139.007 65.0467 139.103 65.4 139.19C65.76 139.277 66.13 139.32 66.51 139.32C66.8633 139.32 67.16 139.273 67.4 139.18C67.64 139.087 67.82 138.953 67.94 138.78C68.06 138.607 68.12 138.403 68.12 138.17C68.12 137.937 68.07 137.74 67.97 137.58C67.87 137.42 67.6967 137.273 67.45 137.14C67.21 137 66.8733 136.853 66.44 136.7C66.1333 136.587 65.8633 136.467 65.63 136.34C65.4033 136.207 65.2133 136.057 65.06 135.89C64.9067 135.723 64.79 135.533 64.71 135.32C64.6367 135.107 64.6 134.86 64.6 134.58C64.6 134.2 64.6967 133.877 64.89 133.61C65.0833 133.337 65.35 133.127 65.69 132.98C66.0367 132.833 66.4333 132.76 66.88 132.76C67.2733 132.76 67.6333 132.797 67.96 132.87C68.2867 132.943 68.5833 133.04 68.85 133.16L68.57 133.93C68.3233 133.823 68.0533 133.733 67.76 133.66C67.4733 133.587 67.1733 133.55 66.86 133.55C66.56 133.55 66.31 133.593 66.11 133.68C65.91 133.767 65.76 133.89 65.66 134.05C65.56 134.203 65.51 134.383 65.51 134.59C65.51 134.83 65.56 135.03 65.66 135.19C65.76 135.35 65.9233 135.493 66.15 135.62C66.3767 135.747 66.6833 135.883 67.07 136.03C67.49 136.183 67.8433 136.35 68.13 136.53C68.4233 136.703 68.6433 136.913 68.79 137.16C68.9433 137.407 69.02 137.717 69.02 138.09ZM72.7183 140H71.8183V133.65H69.5883V132.86H74.9383V133.65H72.7183V140ZM81.4449 137.48C81.4449 137.973 81.3449 138.42 81.1449 138.82C80.9449 139.213 80.6383 139.527 80.2249 139.76C79.8183 139.987 79.2983 140.1 78.6649 140.1C77.7783 140.1 77.1016 139.86 76.6349 139.38C76.1749 138.893 75.9449 138.253 75.9449 137.46V132.86H76.8449V137.49C76.8449 138.07 76.9983 138.52 77.3049 138.84C77.6183 139.16 78.0883 139.32 78.7149 139.32C79.1483 139.32 79.4983 139.243 79.7649 139.09C80.0383 138.93 80.2383 138.713 80.3649 138.44C80.4916 138.16 80.5549 137.84 80.5549 137.48V132.86H81.4449V137.48ZM89.0494 136.36C89.0494 137.16 88.8994 137.83 88.5994 138.37C88.306 138.91 87.8827 139.317 87.3294 139.59C86.776 139.863 86.106 140 85.3194 140H83.3294V132.86H85.5294C86.2494 132.86 86.8727 132.993 87.3994 133.26C87.926 133.527 88.3327 133.92 88.6194 134.44C88.906 134.953 89.0494 135.593 89.0494 136.36ZM88.0994 136.39C88.0994 135.757 87.9927 135.237 87.7794 134.83C87.5727 134.423 87.266 134.123 86.8594 133.93C86.4594 133.73 85.9727 133.63 85.3994 133.63H84.2294V139.23H85.1994C86.166 139.23 86.8894 138.993 87.3694 138.52C87.856 138.04 88.0994 137.33 88.0994 136.39ZM94.6241 140H90.6341V132.86H94.6241V133.65H91.5341V135.88H94.4441V136.66H91.5341V139.21H94.6241V140ZM101.851 140H100.801L96.9807 134.07H96.9407C96.9474 134.19 96.954 134.323 96.9607 134.47C96.974 134.617 96.984 134.777 96.9907 134.95C96.9974 135.117 97.004 135.29 97.0107 135.47C97.0174 135.65 97.0207 135.83 97.0207 136.01V140H96.1907V132.86H97.2307L101.041 138.77H101.081C101.074 138.69 101.067 138.58 101.061 138.44C101.054 138.293 101.047 138.133 101.041 137.96C101.034 137.78 101.027 137.597 101.021 137.41C101.014 137.223 101.011 137.05 101.011 136.89V132.86H101.851V140ZM106.048 140H105.148V133.65H102.918V132.86H108.268V133.65H106.048V140ZM115.003 133.55C114.623 133.55 114.279 133.617 113.973 133.75C113.666 133.877 113.406 134.067 113.193 134.32C112.979 134.567 112.816 134.87 112.703 135.23C112.589 135.583 112.533 135.983 112.533 136.43C112.533 137.017 112.623 137.527 112.803 137.96C112.989 138.393 113.263 138.727 113.623 138.96C113.989 139.193 114.446 139.31 114.993 139.31C115.306 139.31 115.603 139.283 115.883 139.23C116.163 139.177 116.436 139.11 116.703 139.03V139.81C116.436 139.91 116.159 139.983 115.873 140.03C115.593 140.077 115.256 140.1 114.863 140.1C114.136 140.1 113.529 139.95 113.043 139.65C112.556 139.35 112.189 138.923 111.943 138.37C111.703 137.817 111.583 137.167 111.583 136.42C111.583 135.88 111.656 135.387 111.803 134.94C111.956 134.493 112.176 134.107 112.463 133.78C112.756 133.453 113.116 133.203 113.543 133.03C113.969 132.85 114.459 132.76 115.013 132.76C115.379 132.76 115.733 132.797 116.073 132.87C116.413 132.943 116.716 133.047 116.983 133.18L116.623 133.94C116.403 133.84 116.156 133.75 115.883 133.67C115.616 133.59 115.323 133.55 115.003 133.55ZM123.721 140H122.821V136.67H119.161V140H118.261V132.86H119.161V135.88H122.821V132.86H123.721V140ZM130.153 140L129.293 137.79H126.463L125.613 140H124.703L127.493 132.83H128.303L131.083 140H130.153ZM128.223 134.83C128.203 134.777 128.17 134.68 128.123 134.54C128.076 134.4 128.03 134.257 127.983 134.11C127.943 133.957 127.91 133.84 127.883 133.76C127.85 133.893 127.813 134.03 127.773 134.17C127.74 134.303 127.703 134.427 127.663 134.54C127.63 134.653 127.6 134.75 127.573 134.83L126.763 136.99H129.023L128.223 134.83ZM133.95 132.86C134.883 132.86 135.563 133.043 135.99 133.41C136.417 133.777 136.63 134.293 136.63 134.96C136.63 135.253 136.58 135.537 136.48 135.81C136.387 136.077 136.23 136.317 136.01 136.53C135.79 136.743 135.497 136.913 135.13 137.04C134.763 137.16 134.313 137.22 133.78 137.22H132.96V140H132.06V132.86H133.95ZM133.87 133.63H132.96V136.45H133.68C134.133 136.45 134.51 136.403 134.81 136.31C135.11 136.21 135.333 136.053 135.48 135.84C135.627 135.627 135.7 135.347 135.7 135C135.7 134.54 135.553 134.197 135.26 133.97C134.967 133.743 134.503 133.63 133.87 133.63ZM140.375 140H139.475V133.65H137.245V132.86H142.595V133.65H140.375V140ZM147.661 140H143.671V132.86H147.661V133.65H144.571V135.88H147.481V136.66H144.571V139.21H147.661V140ZM151.198 132.86C151.791 132.86 152.278 132.937 152.658 133.09C153.044 133.237 153.331 133.46 153.518 133.76C153.704 134.06 153.798 134.437 153.798 134.89C153.798 135.27 153.728 135.587 153.588 135.84C153.448 136.093 153.268 136.297 153.048 136.45C152.834 136.597 152.608 136.713 152.368 136.8L154.328 140H153.278L151.548 137.05H150.128V140H149.228V132.86H151.198ZM151.148 133.64H150.128V136.29H151.198C151.584 136.29 151.901 136.24 152.148 136.14C152.394 136.033 152.574 135.88 152.688 135.68C152.808 135.48 152.868 135.23 152.868 134.93C152.868 134.617 152.804 134.367 152.678 134.18C152.558 133.993 152.371 133.857 152.118 133.77C151.864 133.683 151.541 133.64 151.148 133.64Z" fill="#0E3A7D"/>
<path d="M55.1608 127H48.2811L46.3559 123.178H46.1577C44.8554 124.82 43.487 125.952 42.0526 126.575C40.637 127.198 38.8345 127.51 36.6451 127.51C33.9083 127.51 31.7661 126.689 30.2184 125.047C28.6707 123.404 27.8969 121.121 27.8969 118.195C27.8969 112.269 32.0586 109.135 40.3822 108.796L45.2235 108.626V108.23C45.2235 105.851 44.0438 104.662 41.6845 104.662C39.6084 104.662 36.9376 105.37 33.6724 106.786L30.7846 100.217C34.1631 98.481 38.4098 97.6127 43.5248 97.6127C47.2241 97.6127 50.0836 98.5376 52.1031 100.387C54.1416 102.237 55.1608 104.794 55.1608 108.06V127ZM38.0607 117.827C38.0607 119.601 39.0044 120.488 40.8918 120.488C42.0998 120.488 43.1284 120.111 43.9778 119.356C44.8271 118.601 45.2518 117.601 45.2518 116.355V114.118L42.9585 114.203C39.6933 114.354 38.0607 115.562 38.0607 117.827ZM75.0749 127.51C70.3752 127.51 66.7985 126.245 64.3448 123.716C61.8912 121.168 60.6644 117.497 60.6644 112.703C60.6644 107.909 61.9761 104.2 64.5996 101.576C67.242 98.9339 70.998 97.6127 75.8676 97.6127C79.1895 97.6127 82.3415 98.3488 85.3236 99.821L82.3792 107.182C79.7368 106.031 77.5852 105.455 75.9242 105.455C74.2633 105.455 72.9893 106.087 72.1022 107.352C71.234 108.598 70.7998 110.362 70.7998 112.646C70.7998 117.27 72.508 119.582 75.9242 119.582C78.8309 119.582 81.6337 118.733 84.3327 117.034V124.962C81.7469 126.66 78.661 127.51 75.0749 127.51ZM135.486 127H125.52V111.315C125.52 109.315 125.256 107.843 124.727 106.899C124.199 105.936 123.349 105.455 122.179 105.455C120.65 105.455 119.527 106.106 118.81 107.408C118.112 108.711 117.763 110.759 117.763 113.552V127H107.769V111.315C107.769 109.334 107.505 107.861 106.976 106.899C106.466 105.936 105.655 105.455 104.541 105.455C102.956 105.455 101.804 106.153 101.087 107.55C100.389 108.947 100.04 111.221 100.04 114.373V127H90.0741V98.1223H97.605L98.8507 101.69H99.4452C100.181 100.387 101.276 99.3869 102.729 98.6886C104.183 97.9714 105.844 97.6127 107.712 97.6127C111.883 97.6127 114.809 98.8773 116.489 101.406H117.281C118.093 100.217 119.225 99.2926 120.679 98.632C122.132 97.9525 123.736 97.6127 125.492 97.6127C128.87 97.6127 131.38 98.4904 133.023 100.246C134.665 101.982 135.486 104.643 135.486 108.23V127Z" fill="#09357A"/>
<path d="M148.699 86.7119C148.699 87.8285 148.427 88.6976 147.884 89.3193C147.614 89.6318 147.275 89.8727 146.868 90.042C146.461 90.208 145.986 90.291 145.442 90.291H142.381V89.8711H142.508C142.758 89.8711 142.957 89.8255 143.104 89.7344C143.253 89.64 143.328 89.4463 143.328 89.1533V84.251C143.328 83.971 143.252 83.7887 143.099 83.7041C142.946 83.6162 142.749 83.5723 142.508 83.5723H142.381V83.1523H145.442C146.474 83.1523 147.275 83.4616 147.845 84.0801C148.414 84.6986 148.699 85.5758 148.699 86.7119ZM144.339 83.6504V89.7832H145.208C145.999 89.7832 146.595 89.5179 146.995 88.9873C147.392 88.4632 147.591 87.7048 147.591 86.7119C147.591 85.7191 147.392 84.9606 146.995 84.4365C146.601 83.9124 146.009 83.6504 145.218 83.6504H144.339ZM152.146 90.3887C151.414 90.3887 150.846 90.1494 150.442 89.6709C150.244 89.4365 150.091 89.1501 149.983 88.8115C149.879 88.4697 149.827 88.0824 149.827 87.6494C149.827 86.7152 150.019 86.012 150.403 85.54C150.787 85.068 151.334 84.832 152.044 84.832C152.705 84.832 153.213 85.0322 153.567 85.4326C153.746 85.6312 153.883 85.8802 153.978 86.1797C154.075 86.4792 154.124 86.8258 154.124 87.2197V87.6787H150.794C150.807 88.4014 150.94 88.9303 151.194 89.2656C151.438 89.5944 151.801 89.7588 152.283 89.7588C152.599 89.7588 152.884 89.6921 153.138 89.5586C153.395 89.4251 153.587 89.2591 153.714 89.0605C153.759 89.0801 153.802 89.1208 153.841 89.1826C153.883 89.2445 153.904 89.3177 153.904 89.4023C153.904 89.5033 153.868 89.6123 153.797 89.7295C153.725 89.8434 153.616 89.9492 153.47 90.0469C153.323 90.1445 153.139 90.2259 152.918 90.291C152.7 90.3561 152.443 90.3887 152.146 90.3887ZM152.024 85.3691C151.653 85.3691 151.367 85.5205 151.165 85.8232C150.966 86.1227 150.849 86.5622 150.813 87.1416H153.113C153.113 86.8779 153.094 86.637 153.055 86.4189C153.016 86.2008 152.954 86.0137 152.869 85.8574C152.785 85.7012 152.672 85.5807 152.532 85.4961C152.396 85.4115 152.226 85.3691 152.024 85.3691ZM154.759 90.291V89.8711H154.886C155.136 89.8711 155.335 89.8255 155.481 89.7344C155.631 89.6432 155.706 89.4495 155.706 89.1533V83.792C155.706 83.512 155.63 83.3298 155.477 83.2451C155.324 83.1572 155.127 83.1133 154.886 83.1133H154.759V82.6934H156.648V89.1533C156.648 89.4463 156.722 89.64 156.868 89.7344C157.018 89.8255 157.218 89.8711 157.469 89.8711H157.596V90.291H154.759ZM160.574 89.8711H160.604V90.291H157.913V89.8711H157.991C158.242 89.8711 158.44 89.8255 158.587 89.7344C158.737 89.6432 158.812 89.4495 158.812 89.1533V83.792C158.812 83.512 158.735 83.3298 158.582 83.2451C158.429 83.1572 158.232 83.1133 157.991 83.1133H157.913V82.6934H159.754V84.8906C159.754 84.9818 159.752 85.0778 159.749 85.1787C159.746 85.2764 159.741 85.3675 159.734 85.4521C159.731 85.501 159.728 85.5498 159.725 85.5986C159.721 85.6475 159.718 85.6947 159.715 85.7402H159.764C160.063 85.1348 160.553 84.832 161.233 84.832C161.81 84.832 162.246 84.9867 162.542 85.2959C162.848 85.6214 163.001 86.1195 163.001 86.79V89.1533C163.001 89.4463 163.068 89.64 163.201 89.7344C163.338 89.8255 163.528 89.8711 163.772 89.8711H163.802V90.291H162.063V86.8389C162.063 86.4027 161.982 86.0658 161.819 85.8281C161.657 85.5905 161.372 85.4717 160.965 85.4717C160.558 85.4717 160.254 85.6182 160.052 85.9111C159.853 86.1911 159.754 86.585 159.754 87.0928V89.2021C159.754 89.4788 159.829 89.6595 159.979 89.7441C160.128 89.8288 160.327 89.8711 160.574 89.8711ZM165.12 83.3086C165.12 83.0872 165.171 82.9294 165.271 82.835C165.376 82.7406 165.516 82.6934 165.691 82.6934C165.861 82.6934 165.997 82.7406 166.102 82.835C166.206 82.9294 166.258 83.0872 166.258 83.3086C166.258 83.5267 166.206 83.6846 166.102 83.7822C165.997 83.8799 165.861 83.9287 165.691 83.9287C165.516 83.9287 165.376 83.8799 165.271 83.7822C165.171 83.6846 165.12 83.5267 165.12 83.3086ZM164.31 90.291V89.8711H164.441C164.689 89.8711 164.887 89.8288 165.037 89.7441C165.187 89.6595 165.262 89.4788 165.262 89.2021V86.0332C165.262 85.7533 165.185 85.5693 165.032 85.4814C164.879 85.3936 164.682 85.3496 164.441 85.3496H164.412V84.9297H166.199V89.1533C166.199 89.4495 166.274 89.6432 166.424 89.7344C166.574 89.8255 166.772 89.8711 167.02 89.8711H167.151V90.291H164.31ZM146.531 95.6504H145.56V101.153C145.56 101.45 145.634 101.643 145.784 101.734C145.934 101.826 146.132 101.871 146.38 101.871H146.609V102.291H143.499V101.871H143.729C143.976 101.871 144.174 101.829 144.324 101.744C144.474 101.66 144.549 101.479 144.549 101.202V95.6504H143.592C143.312 95.6504 143.112 95.7269 142.991 95.8799C142.874 96.0329 142.801 96.2298 142.771 96.4707L142.718 96.9004H142.2L142.249 95.1523H147.879L147.928 96.9004H147.41L147.361 96.4707C147.332 96.2298 147.257 96.0329 147.137 95.8799C147.016 95.7269 146.814 95.6504 146.531 95.6504ZM151.004 102.389C150.271 102.389 149.703 102.149 149.3 101.671C149.101 101.437 148.948 101.15 148.841 100.812C148.737 100.47 148.685 100.082 148.685 99.6494C148.685 98.7152 148.877 98.012 149.261 97.54C149.645 97.068 150.192 96.832 150.901 96.832C151.562 96.832 152.07 97.0322 152.425 97.4326C152.604 97.6312 152.741 97.8802 152.835 98.1797C152.933 98.4792 152.981 98.8258 152.981 99.2197V99.6787H149.651C149.664 100.401 149.798 100.93 150.052 101.266C150.296 101.594 150.659 101.759 151.141 101.759C151.456 101.759 151.741 101.692 151.995 101.559C152.252 101.425 152.444 101.259 152.571 101.061C152.617 101.08 152.659 101.121 152.698 101.183C152.741 101.244 152.762 101.318 152.762 101.402C152.762 101.503 152.726 101.612 152.654 101.729C152.583 101.843 152.474 101.949 152.327 102.047C152.181 102.145 151.997 102.226 151.775 102.291C151.557 102.356 151.3 102.389 151.004 102.389ZM150.882 97.3691C150.511 97.3691 150.224 97.5205 150.022 97.8232C149.824 98.1227 149.707 98.5622 149.671 99.1416H151.971C151.971 98.8779 151.951 98.637 151.912 98.4189C151.873 98.2008 151.811 98.0137 151.727 97.8574C151.642 97.7012 151.53 97.5807 151.39 97.4961C151.253 97.4115 151.084 97.3691 150.882 97.3691ZM156.316 102.389C155.984 102.389 155.678 102.338 155.398 102.237C155.118 102.133 154.878 101.97 154.676 101.749C154.474 101.528 154.316 101.244 154.202 100.899C154.091 100.551 154.036 100.131 154.036 99.6396C154.036 99.1058 154.093 98.6598 154.207 98.3018C154.321 97.9404 154.477 97.6507 154.676 97.4326C154.878 97.2145 155.114 97.0599 155.384 96.9688C155.654 96.8776 155.947 96.832 156.263 96.832C156.471 96.832 156.678 96.8532 156.883 96.8955C157.091 96.9346 157.278 96.9964 157.444 97.0811C157.61 97.1657 157.745 97.2731 157.85 97.4033C157.954 97.5303 158.006 97.68 158.006 97.8525C158.006 98.0837 157.931 98.2464 157.781 98.3408C157.632 98.4352 157.409 98.4824 157.112 98.4824C157.112 98.1536 157.052 97.8802 156.932 97.6621C156.814 97.4408 156.591 97.3301 156.263 97.3301C156.071 97.3301 155.896 97.3659 155.74 97.4375C155.587 97.5091 155.455 97.6328 155.345 97.8086C155.234 97.9844 155.149 98.2204 155.091 98.5166C155.032 98.8128 155.003 99.1839 155.003 99.6299C155.003 100.34 155.12 100.868 155.354 101.217C155.592 101.565 155.979 101.739 156.517 101.739C156.826 101.739 157.096 101.674 157.327 101.544C157.558 101.414 157.731 101.246 157.845 101.041C157.894 101.08 157.934 101.132 157.967 101.197C157.999 101.262 158.016 101.34 158.016 101.432C158.016 101.546 157.98 101.66 157.908 101.773C157.84 101.887 157.734 101.99 157.591 102.081C157.451 102.172 157.273 102.245 157.059 102.301C156.847 102.359 156.6 102.389 156.316 102.389ZM161.248 101.871H161.277V102.291H158.587V101.871H158.665C158.916 101.871 159.114 101.826 159.261 101.734C159.41 101.643 159.485 101.45 159.485 101.153V95.792C159.485 95.512 159.409 95.3298 159.256 95.2451C159.103 95.1572 158.906 95.1133 158.665 95.1133H158.587V94.6934H160.428V96.8906C160.428 96.9818 160.426 97.0778 160.423 97.1787C160.42 97.2764 160.415 97.3675 160.408 97.4521C160.405 97.501 160.402 97.5498 160.398 97.5986C160.395 97.6475 160.392 97.6947 160.389 97.7402H160.438C160.737 97.1348 161.227 96.832 161.907 96.832C162.483 96.832 162.92 96.9867 163.216 97.2959C163.522 97.6214 163.675 98.1195 163.675 98.79V101.153C163.675 101.446 163.742 101.64 163.875 101.734C164.012 101.826 164.202 101.871 164.446 101.871H164.476V102.291H162.737V98.8389C162.737 98.4027 162.656 98.0658 162.493 97.8281C162.33 97.5905 162.046 97.4717 161.639 97.4717C161.232 97.4717 160.927 97.6182 160.726 97.9111C160.527 98.1911 160.428 98.585 160.428 99.0928V101.202C160.428 101.479 160.503 101.66 160.652 101.744C160.802 101.829 161.001 101.871 161.248 101.871ZM167.693 101.871H167.723V102.291H165.032V101.871H165.115C165.366 101.871 165.564 101.826 165.711 101.734C165.861 101.643 165.936 101.45 165.936 101.153V98.0332C165.936 97.7533 165.859 97.5693 165.706 97.4814C165.553 97.3936 165.356 97.3496 165.115 97.3496H165.086V96.9297H166.702L166.834 97.7402H166.883C167.085 97.3822 167.309 97.1413 167.557 97.0176C167.804 96.8939 168.1 96.832 168.445 96.832C168.979 96.832 169.391 96.9867 169.681 97.2959C169.977 97.6214 170.125 98.1195 170.125 98.79V101.153C170.125 101.446 170.19 101.64 170.32 101.734C170.454 101.826 170.644 101.871 170.892 101.871H170.926V102.291H169.183V98.8389C169.183 98.4027 169.101 98.0658 168.938 97.8281C168.776 97.5905 168.491 97.4717 168.084 97.4717C167.856 97.4717 167.664 97.5156 167.508 97.6035C167.355 97.6914 167.231 97.8102 167.137 97.96C167.042 98.1097 166.974 98.2822 166.932 98.4775C166.893 98.6729 166.873 98.8779 166.873 99.0928V101.202C166.873 101.479 166.948 101.66 167.098 101.744C167.247 101.829 167.446 101.871 167.693 101.871ZM172.249 95.3086C172.249 95.0872 172.299 94.9294 172.4 94.835C172.505 94.7406 172.645 94.6934 172.82 94.6934C172.99 94.6934 173.126 94.7406 173.23 94.835C173.335 94.9294 173.387 95.0872 173.387 95.3086C173.387 95.5267 173.335 95.6846 173.23 95.7822C173.126 95.8799 172.99 95.9287 172.82 95.9287C172.645 95.9287 172.505 95.8799 172.4 95.7822C172.299 95.6846 172.249 95.5267 172.249 95.3086ZM171.438 102.291V101.871H171.57C171.818 101.871 172.016 101.829 172.166 101.744C172.316 101.66 172.391 101.479 172.391 101.202V98.0332C172.391 97.7533 172.314 97.5693 172.161 97.4814C172.008 97.3936 171.811 97.3496 171.57 97.3496H171.541V96.9297H173.328V101.153C173.328 101.45 173.403 101.643 173.553 101.734C173.702 101.826 173.901 101.871 174.148 101.871H174.28V102.291H171.438ZM177.244 102.389C176.912 102.389 176.606 102.338 176.326 102.237C176.046 102.133 175.805 101.97 175.604 101.749C175.402 101.528 175.244 101.244 175.13 100.899C175.019 100.551 174.964 100.131 174.964 99.6396C174.964 99.1058 175.021 98.6598 175.135 98.3018C175.249 97.9404 175.405 97.6507 175.604 97.4326C175.805 97.2145 176.041 97.0599 176.312 96.9688C176.582 96.8776 176.875 96.832 177.19 96.832C177.399 96.832 177.605 96.8532 177.811 96.8955C178.019 96.9346 178.206 96.9964 178.372 97.0811C178.538 97.1657 178.673 97.2731 178.777 97.4033C178.882 97.5303 178.934 97.68 178.934 97.8525C178.934 98.0837 178.859 98.2464 178.709 98.3408C178.559 98.4352 178.336 98.4824 178.04 98.4824C178.04 98.1536 177.98 97.8802 177.859 97.6621C177.742 97.4408 177.519 97.3301 177.19 97.3301C176.998 97.3301 176.824 97.3659 176.668 97.4375C176.515 97.5091 176.383 97.6328 176.272 97.8086C176.162 97.9844 176.077 98.2204 176.019 98.5166C175.96 98.8128 175.931 99.1839 175.931 99.6299C175.931 100.34 176.048 100.868 176.282 101.217C176.52 101.565 176.907 101.739 177.444 101.739C177.754 101.739 178.024 101.674 178.255 101.544C178.486 101.414 178.659 101.246 178.772 101.041C178.821 101.08 178.862 101.132 178.895 101.197C178.927 101.262 178.943 101.34 178.943 101.432C178.943 101.546 178.908 101.66 178.836 101.773C178.768 101.887 178.662 101.99 178.519 102.081C178.379 102.172 178.201 102.245 177.986 102.301C177.775 102.359 177.527 102.389 177.244 102.389ZM182.015 97.3301C181.647 97.3301 181.403 97.4277 181.282 97.623C181.162 97.8151 181.102 98.0804 181.102 98.4189C180.825 98.4189 180.613 98.3717 180.467 98.2773C180.324 98.1829 180.252 98.0202 180.252 97.7891C180.252 97.6165 180.299 97.4701 180.394 97.3496C180.488 97.2292 180.618 97.1299 180.784 97.0518C180.947 96.9769 181.137 96.9215 181.355 96.8857C181.574 96.8499 181.806 96.832 182.054 96.832C182.36 96.832 182.627 96.863 182.854 96.9248C183.082 96.9834 183.273 97.0811 183.426 97.2178C183.732 97.4912 183.885 97.9388 183.885 98.5605V101.153C183.885 101.42 183.93 101.607 184.021 101.715C184.113 101.819 184.274 101.871 184.505 101.871H184.534V102.291H183.182L183.025 101.432H182.942C182.796 101.627 182.654 101.796 182.518 101.939C182.381 102.083 182.225 102.193 182.049 102.271C181.873 102.35 181.652 102.389 181.385 102.389C181.163 102.389 180.957 102.356 180.765 102.291C180.576 102.226 180.413 102.128 180.276 101.998C180.136 101.865 180.027 101.699 179.949 101.5C179.871 101.301 179.832 101.065 179.832 100.792C179.832 100.261 180.021 99.8675 180.398 99.6104C180.776 99.3532 181.347 99.2132 182.112 99.1904L182.942 99.1611V98.5605C182.942 98.3066 182.92 98.0885 182.874 97.9062C182.832 97.7207 182.744 97.5791 182.61 97.4814C182.48 97.3805 182.282 97.3301 182.015 97.3301ZM180.804 100.841C180.804 101.463 181.074 101.773 181.614 101.773C182.024 101.773 182.348 101.648 182.586 101.397C182.824 101.144 182.942 100.805 182.942 100.382V99.5713L182.303 99.6006C181.756 99.6234 181.365 99.7373 181.131 99.9424C181.014 100.043 180.929 100.17 180.877 100.323C180.828 100.473 180.804 100.646 180.804 100.841ZM185.101 102.291V101.871H185.228C185.478 101.871 185.677 101.826 185.823 101.734C185.973 101.643 186.048 101.45 186.048 101.153V95.792C186.048 95.512 185.971 95.3298 185.818 95.2451C185.665 95.1572 185.468 95.1133 185.228 95.1133H185.101V94.6934H186.99V101.153C186.99 101.446 187.063 101.64 187.21 101.734C187.36 101.826 187.56 101.871 187.811 101.871H187.938V102.291H185.101ZM145.779 107.05C146.121 107.05 146.417 107.079 146.668 107.138C146.922 107.193 147.133 107.271 147.303 107.372C147.635 107.571 147.801 107.838 147.801 108.173C147.801 108.391 147.716 108.562 147.547 108.686C147.381 108.809 147.176 108.871 146.932 108.871C146.932 108.643 146.891 108.432 146.81 108.236C146.728 108.041 146.601 107.883 146.429 107.763C146.256 107.642 146.033 107.582 145.76 107.582C145.382 107.582 145.062 107.652 144.798 107.792C144.534 107.929 144.319 108.129 144.153 108.393C143.987 108.66 143.867 108.988 143.792 109.379C143.717 109.766 143.68 110.211 143.68 110.712C143.68 111.158 143.719 111.566 143.797 111.938C143.875 112.309 143.999 112.626 144.168 112.89C144.337 113.157 144.552 113.363 144.812 113.51C145.076 113.656 145.392 113.729 145.76 113.729C146.004 113.729 146.219 113.707 146.404 113.661C146.593 113.612 146.759 113.549 146.902 113.471C147.046 113.393 147.171 113.303 147.278 113.202C147.389 113.098 147.487 112.991 147.571 112.88C147.627 112.916 147.672 112.965 147.708 113.026C147.744 113.088 147.762 113.17 147.762 113.271C147.762 113.397 147.718 113.528 147.63 113.661C147.545 113.791 147.415 113.91 147.239 114.018C147.063 114.125 146.84 114.215 146.57 114.286C146.3 114.354 145.979 114.389 145.608 114.389C145.11 114.389 144.673 114.301 144.295 114.125C143.917 113.949 143.602 113.7 143.348 113.378C143.09 113.056 142.897 112.668 142.767 112.216C142.636 111.763 142.571 111.262 142.571 110.712C142.571 110.172 142.64 109.677 142.776 109.228C142.916 108.778 143.12 108.393 143.387 108.07C143.657 107.748 143.991 107.497 144.388 107.318C144.788 107.139 145.252 107.05 145.779 107.05ZM150.823 109.33C150.455 109.33 150.211 109.428 150.091 109.623C149.97 109.815 149.91 110.08 149.91 110.419C149.633 110.419 149.422 110.372 149.275 110.277C149.132 110.183 149.061 110.02 149.061 109.789C149.061 109.617 149.108 109.47 149.202 109.35C149.297 109.229 149.427 109.13 149.593 109.052C149.756 108.977 149.946 108.922 150.164 108.886C150.382 108.85 150.615 108.832 150.862 108.832C151.168 108.832 151.435 108.863 151.663 108.925C151.891 108.983 152.081 109.081 152.234 109.218C152.54 109.491 152.693 109.939 152.693 110.561V113.153C152.693 113.42 152.739 113.607 152.83 113.715C152.921 113.819 153.082 113.871 153.313 113.871H153.343V114.291H151.99L151.834 113.432H151.751C151.604 113.627 151.463 113.796 151.326 113.939C151.189 114.083 151.033 114.193 150.857 114.271C150.682 114.35 150.46 114.389 150.193 114.389C149.972 114.389 149.765 114.356 149.573 114.291C149.384 114.226 149.222 114.128 149.085 113.998C148.945 113.865 148.836 113.699 148.758 113.5C148.68 113.301 148.641 113.065 148.641 112.792C148.641 112.261 148.829 111.868 149.207 111.61C149.585 111.353 150.156 111.213 150.921 111.19L151.751 111.161V110.561C151.751 110.307 151.728 110.089 151.683 109.906C151.64 109.721 151.552 109.579 151.419 109.481C151.289 109.381 151.09 109.33 150.823 109.33ZM149.612 112.841C149.612 113.463 149.882 113.773 150.423 113.773C150.833 113.773 151.157 113.648 151.395 113.397C151.632 113.144 151.751 112.805 151.751 112.382V111.571L151.111 111.601C150.564 111.623 150.174 111.737 149.939 111.942C149.822 112.043 149.738 112.17 149.686 112.323C149.637 112.473 149.612 112.646 149.612 112.841ZM156.717 113.871H156.746V114.291H154.056V113.871H154.188C154.438 113.871 154.629 113.826 154.759 113.734C154.892 113.64 154.959 113.446 154.959 113.153V110.033C154.959 109.753 154.891 109.569 154.754 109.481C154.617 109.394 154.428 109.35 154.188 109.35H154.158V108.93H155.726L155.857 109.74H155.906C156.098 109.385 156.313 109.146 156.551 109.022C156.792 108.896 157.08 108.832 157.415 108.832C157.744 108.832 158.037 108.902 158.294 109.042C158.554 109.182 158.745 109.415 158.865 109.74H158.948C159.14 109.385 159.365 109.146 159.622 109.022C159.882 108.896 160.18 108.832 160.516 108.832C161.036 108.832 161.435 108.987 161.712 109.296C161.852 109.455 161.959 109.659 162.034 109.906C162.109 110.154 162.146 110.448 162.146 110.79V113.153C162.146 113.446 162.213 113.64 162.347 113.734C162.483 113.826 162.674 113.871 162.918 113.871H162.947V114.291H161.209V110.839C161.209 110.409 161.131 110.074 160.975 109.833C160.818 109.592 160.547 109.472 160.159 109.472C159.886 109.472 159.668 109.538 159.505 109.672C159.342 109.805 159.225 109.984 159.153 110.209C159.082 110.434 159.046 110.684 159.046 110.961V113.153C159.046 113.446 159.113 113.64 159.246 113.734C159.383 113.826 159.573 113.871 159.817 113.871H159.847V114.291H158.108V110.839C158.108 110.409 158.03 110.074 157.874 109.833C157.718 109.592 157.446 109.472 157.059 109.472C156.84 109.472 156.657 109.516 156.507 109.604C156.36 109.691 156.242 109.81 156.15 109.96C156.059 110.11 155.994 110.282 155.955 110.478C155.916 110.673 155.896 110.878 155.896 111.093V113.202C155.896 113.479 155.971 113.66 156.121 113.744C156.271 113.829 156.469 113.871 156.717 113.871ZM168.821 111.601C168.821 112.554 168.646 113.261 168.294 113.72C167.952 114.166 167.448 114.389 166.78 114.389C166.416 114.389 166.108 114.311 165.857 114.154C165.607 113.998 165.405 113.783 165.252 113.51H165.213C165.216 113.594 165.219 113.677 165.223 113.759C165.226 113.84 165.229 113.918 165.232 113.993C165.236 114.032 165.237 114.102 165.237 114.203C165.241 114.301 165.244 114.394 165.247 114.481C165.25 114.573 165.252 114.626 165.252 114.643V115.6C165.252 115.88 165.327 116.062 165.477 116.146C165.63 116.231 165.828 116.273 166.072 116.273H166.102V116.693H163.411V116.273H163.489C163.74 116.273 163.938 116.226 164.085 116.132C164.235 116.041 164.31 115.847 164.31 115.551V110.033C164.31 109.753 164.233 109.569 164.08 109.481C163.927 109.394 163.73 109.35 163.489 109.35H163.362V108.93H165.11L165.213 109.833H165.252C165.405 109.517 165.602 109.271 165.843 109.096C166.084 108.92 166.396 108.832 166.78 108.832C167.448 108.832 167.952 109.053 168.294 109.496C168.646 109.955 168.821 110.657 168.821 111.601ZM166.609 109.472C166.105 109.472 165.748 109.646 165.54 109.994C165.436 110.17 165.361 110.391 165.315 110.658C165.273 110.925 165.252 111.239 165.252 111.601C165.252 111.949 165.273 112.257 165.315 112.523C165.361 112.79 165.438 113.015 165.545 113.197C165.649 113.38 165.787 113.518 165.96 113.612C166.136 113.703 166.355 113.749 166.619 113.749C167.049 113.749 167.365 113.565 167.566 113.197C167.664 113.015 167.736 112.79 167.781 112.523C167.827 112.253 167.85 111.942 167.85 111.591C167.85 110.868 167.755 110.338 167.566 109.999C167.368 109.647 167.049 109.472 166.609 109.472ZM172.854 108.93H174.642V113.202C174.642 113.479 174.716 113.66 174.866 113.744C175.016 113.829 175.215 113.871 175.462 113.871H175.491V114.291H173.904L173.772 113.48H173.724C173.535 113.835 173.302 114.076 173.025 114.203C172.749 114.327 172.441 114.389 172.103 114.389C171.559 114.389 171.152 114.234 170.882 113.925C170.595 113.599 170.452 113.101 170.452 112.431V110.033C170.452 109.753 170.376 109.569 170.223 109.481C170.07 109.394 169.873 109.35 169.632 109.35H169.603V108.93H171.395V112.382C171.395 112.818 171.468 113.155 171.614 113.393C171.764 113.63 172.041 113.749 172.444 113.749C172.666 113.749 172.856 113.71 173.016 113.632C173.175 113.55 173.305 113.44 173.406 113.3C173.51 113.157 173.585 112.987 173.631 112.792C173.68 112.593 173.704 112.374 173.704 112.133V110.072C173.704 109.773 173.629 109.577 173.479 109.486C173.333 109.395 173.134 109.35 172.884 109.35H172.854V108.93ZM177.82 114.389C177.306 114.389 176.906 114.299 176.619 114.12C176.32 113.938 176.17 113.674 176.17 113.329C176.17 113.088 176.237 112.914 176.37 112.807C176.507 112.696 176.65 112.641 176.8 112.641C176.8 113.005 176.881 113.308 177.044 113.549C177.207 113.79 177.485 113.91 177.879 113.91C178.217 113.91 178.486 113.83 178.685 113.671C178.883 113.508 178.982 113.285 178.982 113.002C178.982 112.878 178.965 112.772 178.929 112.685C178.893 112.593 178.828 112.509 178.733 112.431C178.642 112.353 178.515 112.273 178.353 112.191C178.193 112.11 177.993 112.017 177.752 111.913C177.495 111.799 177.27 111.69 177.078 111.586C176.889 111.479 176.733 111.363 176.609 111.239C176.486 111.116 176.393 110.976 176.331 110.819C176.269 110.66 176.238 110.471 176.238 110.253C176.238 109.8 176.411 109.451 176.756 109.203C177.098 108.962 177.553 108.842 178.123 108.842C178.361 108.842 178.571 108.866 178.753 108.915C178.935 108.961 179.088 109.026 179.212 109.11C179.459 109.276 179.583 109.493 179.583 109.76C179.583 109.942 179.52 110.089 179.393 110.199C179.269 110.307 179.091 110.36 178.86 110.36C178.86 110.025 178.79 109.765 178.65 109.579C178.514 109.394 178.297 109.301 178.001 109.301C177.685 109.301 177.448 109.371 177.288 109.511C177.129 109.651 177.049 109.848 177.049 110.102C177.049 110.342 177.145 110.538 177.337 110.688C177.435 110.766 177.562 110.842 177.718 110.917C177.877 110.989 178.068 111.07 178.289 111.161C178.553 111.272 178.779 111.381 178.968 111.488C179.16 111.596 179.316 111.713 179.437 111.84C179.674 112.087 179.793 112.414 179.793 112.821C179.793 113.082 179.746 113.31 179.651 113.505C179.557 113.697 179.424 113.86 179.251 113.993C178.906 114.257 178.429 114.389 177.82 114.389Z" fill="#0287BF"/>
<path d="M144.806 127.359C144.401 127.359 144.046 127.298 143.743 127.175C143.442 127.052 143.193 126.877 142.995 126.652C142.794 126.426 142.645 126.155 142.547 125.838C142.449 125.522 142.4 125.171 142.4 124.786C142.4 124.407 142.451 124.061 142.554 123.747C142.659 123.432 142.815 123.162 143.022 122.937C143.227 122.711 143.482 122.535 143.788 122.41C144.093 122.285 144.447 122.222 144.851 122.222C145.11 122.222 145.336 122.243 145.527 122.284C145.721 122.322 145.883 122.377 146.013 122.448C146.268 122.587 146.396 122.774 146.396 123.008C146.396 123.161 146.331 123.281 146.201 123.367C146.073 123.454 145.922 123.497 145.746 123.497C145.746 123.388 145.73 123.279 145.698 123.172C145.666 123.063 145.614 122.966 145.541 122.882C145.468 122.795 145.372 122.726 145.254 122.673C145.135 122.621 144.991 122.595 144.82 122.595C144.524 122.595 144.271 122.644 144.061 122.742C143.854 122.837 143.684 122.978 143.552 123.162C143.42 123.349 143.324 123.579 143.265 123.853C143.205 124.124 143.176 124.435 143.176 124.786C143.176 125.134 143.207 125.444 143.268 125.715C143.33 125.986 143.43 126.214 143.569 126.399C143.708 126.583 143.888 126.724 144.109 126.819C144.33 126.915 144.6 126.963 144.919 126.963C145.053 126.963 145.183 126.956 145.309 126.942C145.436 126.929 145.549 126.907 145.647 126.877V125.75C145.647 125.556 145.593 125.428 145.486 125.367C145.382 125.305 145.244 125.274 145.073 125.274H145.045V124.98H146.864V125.274H146.836C146.684 125.274 146.565 125.309 146.481 125.377C146.397 125.443 146.354 125.577 146.354 125.78V127.038C146.12 127.147 145.878 127.228 145.63 127.281C145.382 127.333 145.107 127.359 144.806 127.359ZM149.055 126.997H149.25V127.291H147.229V126.997H147.25C147.425 126.997 147.564 126.965 147.667 126.901C147.772 126.838 147.824 126.702 147.824 126.495V124.311C147.824 124.115 147.771 123.986 147.664 123.924C147.556 123.863 147.419 123.832 147.25 123.832H147.229V123.538H148.306L148.439 124.232H148.474C148.542 124.077 148.611 123.943 148.682 123.829C148.755 123.715 148.85 123.627 148.966 123.565C149.082 123.502 149.238 123.47 149.434 123.47C149.938 123.47 150.189 123.639 150.189 123.979C150.189 124.312 149.972 124.478 149.537 124.478C149.537 124.284 149.509 124.145 149.455 124.061C149.4 123.974 149.304 123.931 149.167 123.931C149.081 123.931 149.003 123.955 148.935 124.003C148.803 124.099 148.7 124.257 148.627 124.478C148.591 124.578 148.562 124.685 148.542 124.799C148.519 124.911 148.503 125.021 148.494 125.131C148.485 125.24 148.48 125.339 148.48 125.428V126.529C148.48 126.722 148.533 126.849 148.638 126.908C148.743 126.967 148.882 126.997 149.055 126.997ZM152.309 127.359C151.796 127.359 151.398 127.192 151.116 126.857C150.977 126.693 150.87 126.492 150.794 126.255C150.722 126.016 150.685 125.745 150.685 125.442C150.685 124.788 150.819 124.296 151.088 123.965C151.357 123.635 151.74 123.47 152.237 123.47C152.699 123.47 153.055 123.61 153.303 123.89C153.429 124.029 153.524 124.203 153.59 124.413C153.659 124.623 153.693 124.865 153.693 125.141V125.462H151.362C151.371 125.968 151.464 126.339 151.642 126.573C151.813 126.803 152.067 126.918 152.404 126.918C152.625 126.918 152.825 126.872 153.002 126.778C153.182 126.685 153.317 126.569 153.406 126.43C153.438 126.443 153.467 126.472 153.495 126.515C153.524 126.558 153.539 126.61 153.539 126.669C153.539 126.74 153.514 126.816 153.464 126.898C153.414 126.978 153.337 127.052 153.235 127.12C153.132 127.188 153.004 127.245 152.849 127.291C152.696 127.337 152.516 127.359 152.309 127.359ZM152.223 123.846C151.963 123.846 151.763 123.952 151.622 124.164C151.483 124.373 151.401 124.681 151.375 125.086H152.985C152.985 124.902 152.972 124.733 152.944 124.581C152.917 124.428 152.874 124.297 152.814 124.188C152.755 124.078 152.677 123.994 152.579 123.935C152.483 123.875 152.364 123.846 152.223 123.846ZM155.921 123.818C155.664 123.818 155.493 123.887 155.409 124.023C155.324 124.158 155.282 124.344 155.282 124.581C155.089 124.581 154.94 124.548 154.838 124.481C154.738 124.415 154.688 124.301 154.688 124.14C154.688 124.019 154.721 123.916 154.787 123.832C154.853 123.748 154.944 123.678 155.06 123.624C155.174 123.571 155.307 123.532 155.46 123.507C155.613 123.482 155.776 123.47 155.949 123.47C156.163 123.47 156.35 123.491 156.509 123.535C156.669 123.576 156.802 123.644 156.909 123.74C157.123 123.931 157.23 124.244 157.23 124.68V126.495C157.23 126.681 157.262 126.812 157.326 126.888C157.39 126.961 157.503 126.997 157.665 126.997H157.685V127.291H156.738L156.629 126.689H156.571C156.468 126.826 156.369 126.945 156.273 127.045C156.178 127.145 156.068 127.223 155.945 127.277C155.822 127.332 155.667 127.359 155.48 127.359C155.326 127.359 155.181 127.337 155.046 127.291C154.914 127.245 154.8 127.177 154.705 127.086C154.607 126.993 154.53 126.876 154.476 126.737C154.421 126.598 154.394 126.433 154.394 126.242C154.394 125.87 154.526 125.595 154.79 125.415C155.054 125.235 155.454 125.137 155.99 125.121L156.571 125.1V124.68C156.571 124.502 156.555 124.349 156.523 124.222C156.493 124.092 156.432 123.993 156.338 123.924C156.247 123.854 156.108 123.818 155.921 123.818ZM155.074 126.276C155.074 126.711 155.263 126.929 155.641 126.929C155.928 126.929 156.155 126.841 156.321 126.666C156.488 126.488 156.571 126.251 156.571 125.955V125.387L156.123 125.408C155.74 125.424 155.467 125.503 155.303 125.647C155.221 125.718 155.161 125.806 155.125 125.914C155.091 126.018 155.074 126.139 155.074 126.276ZM159.845 126.99C159.93 126.99 160.007 126.986 160.078 126.977C160.148 126.967 160.22 126.956 160.293 126.942V127.25C160.229 127.28 160.135 127.305 160.009 127.325C159.886 127.348 159.773 127.359 159.671 127.359C159.313 127.359 159.056 127.28 158.898 127.12C158.737 126.956 158.656 126.675 158.656 126.276V123.938H158.123V123.658C158.207 123.658 158.299 123.641 158.399 123.606C158.502 123.572 158.592 123.515 158.669 123.436C158.749 123.349 158.813 123.246 158.861 123.128C158.911 123.007 158.954 122.857 158.991 122.677H159.312V123.538H160.228V123.938H159.312V126.296C159.312 126.536 159.36 126.711 159.456 126.823C159.554 126.934 159.683 126.99 159.845 126.99ZM162.467 127.359C161.954 127.359 161.556 127.192 161.274 126.857C161.135 126.693 161.028 126.492 160.953 126.255C160.88 126.016 160.843 125.745 160.843 125.442C160.843 124.788 160.978 124.296 161.247 123.965C161.515 123.635 161.898 123.47 162.395 123.47C162.858 123.47 163.213 123.61 163.461 123.89C163.587 124.029 163.682 124.203 163.749 124.413C163.817 124.623 163.851 124.865 163.851 125.141V125.462H161.52C161.529 125.968 161.623 126.339 161.8 126.573C161.971 126.803 162.225 126.918 162.562 126.918C162.784 126.918 162.983 126.872 163.161 126.778C163.341 126.685 163.475 126.569 163.564 126.43C163.596 126.443 163.625 126.472 163.653 126.515C163.682 126.558 163.697 126.61 163.697 126.669C163.697 126.74 163.672 126.816 163.622 126.898C163.572 126.978 163.496 127.052 163.393 127.12C163.291 127.188 163.162 127.245 163.007 127.291C162.854 127.337 162.674 127.359 162.467 127.359ZM162.381 123.846C162.122 123.846 161.921 123.952 161.78 124.164C161.641 124.373 161.559 124.681 161.534 125.086H163.144C163.144 124.902 163.13 124.733 163.103 124.581C163.075 124.428 163.032 124.297 162.973 124.188C162.913 124.078 162.835 123.994 162.737 123.935C162.641 123.875 162.523 123.846 162.381 123.846ZM166.261 126.997H166.456V127.291H164.436V126.997H164.456C164.632 126.997 164.771 126.965 164.873 126.901C164.978 126.838 165.03 126.702 165.03 126.495V124.311C165.03 124.115 164.977 123.986 164.87 123.924C164.763 123.863 164.625 123.832 164.456 123.832H164.436V123.538H165.512L165.646 124.232H165.68C165.748 124.077 165.818 123.943 165.888 123.829C165.961 123.715 166.056 123.627 166.172 123.565C166.288 123.502 166.444 123.47 166.64 123.47C167.144 123.47 167.396 123.639 167.396 123.979C167.396 124.312 167.178 124.478 166.743 124.478C166.743 124.284 166.715 124.145 166.661 124.061C166.606 123.974 166.51 123.931 166.374 123.931C166.287 123.931 166.209 123.955 166.141 124.003C166.009 124.099 165.906 124.257 165.833 124.478C165.797 124.578 165.769 124.685 165.748 124.799C165.725 124.911 165.709 125.021 165.7 125.131C165.691 125.24 165.687 125.339 165.687 125.428V126.529C165.687 126.722 165.739 126.849 165.844 126.908C165.949 126.967 166.088 126.997 166.261 126.997ZM173.804 123.09V127.291H173.305L170.68 123.258V126.495C170.68 126.702 170.733 126.838 170.837 126.901C170.942 126.965 171.081 126.997 171.254 126.997H171.347V127.291H169.59V126.997H169.679C169.854 126.997 169.993 126.965 170.096 126.901C170.201 126.835 170.253 126.7 170.253 126.495V123.063C170.253 122.867 170.199 122.739 170.092 122.68C169.985 122.619 169.847 122.588 169.679 122.588H169.59V122.294H170.872L173.377 126.163V123.063C173.377 122.867 173.323 122.739 173.216 122.68C173.109 122.619 172.971 122.588 172.803 122.588H172.71V122.294H174.467V122.588H174.378C174.203 122.588 174.063 122.621 173.958 122.687C173.855 122.751 173.804 122.885 173.804 123.09ZM178.323 125.408C178.323 126.066 178.183 126.556 177.902 126.877C177.624 127.199 177.216 127.359 176.679 127.359C176.164 127.359 175.767 127.199 175.489 126.877C175.35 126.716 175.243 126.513 175.168 126.269C175.093 126.023 175.055 125.736 175.055 125.408C175.055 124.754 175.193 124.267 175.469 123.948C175.747 123.629 176.157 123.47 176.699 123.47C177.219 123.47 177.616 123.628 177.892 123.945C178.033 124.104 178.14 124.306 178.213 124.55C178.286 124.794 178.323 125.08 178.323 125.408ZM175.732 125.408C175.732 125.667 175.749 125.896 175.783 126.095C175.817 126.291 175.873 126.456 175.951 126.59C176.103 126.861 176.351 126.997 176.692 126.997C177.032 126.997 177.278 126.861 177.431 126.59C177.506 126.456 177.559 126.291 177.591 126.095C177.625 125.896 177.643 125.667 177.643 125.408C177.643 125.148 177.625 124.92 177.591 124.724C177.557 124.528 177.502 124.364 177.427 124.232C177.275 123.97 177.027 123.839 176.686 123.839C176.346 123.839 176.1 123.97 175.947 124.232C175.872 124.364 175.817 124.528 175.783 124.724C175.749 124.92 175.732 125.148 175.732 125.408ZM179.437 122.403C179.437 122.248 179.472 122.138 179.543 122.072C179.616 122.006 179.714 121.973 179.837 121.973C179.955 121.973 180.051 122.006 180.124 122.072C180.197 122.138 180.233 122.248 180.233 122.403C180.233 122.556 180.197 122.667 180.124 122.735C180.051 122.803 179.955 122.837 179.837 122.837C179.714 122.837 179.616 122.803 179.543 122.735C179.472 122.667 179.437 122.556 179.437 122.403ZM178.87 127.291V126.997H178.962C179.135 126.997 179.274 126.967 179.379 126.908C179.484 126.849 179.536 126.722 179.536 126.529V124.311C179.536 124.115 179.483 123.986 179.375 123.924C179.268 123.863 179.131 123.832 178.962 123.832H178.941V123.538H180.192V126.495C180.192 126.702 180.245 126.838 180.35 126.901C180.454 126.965 180.593 126.997 180.767 126.997H180.859V127.291H178.87ZM183.204 121.973H184.492V126.522C184.492 126.718 184.546 126.847 184.653 126.908C184.76 126.967 184.898 126.997 185.066 126.997H185.125V127.291H183.938L183.863 126.662H183.836C183.729 126.881 183.589 127.052 183.416 127.175C183.245 127.298 183.027 127.359 182.763 127.359C182.296 127.359 181.942 127.203 181.703 126.891C181.459 126.574 181.337 126.084 181.337 125.421C181.337 124.751 181.459 124.257 181.703 123.938C181.942 123.626 182.296 123.47 182.763 123.47C183.018 123.47 183.234 123.524 183.412 123.634C183.59 123.743 183.731 123.894 183.836 124.085H183.877L183.856 123.764C183.854 123.72 183.852 123.677 183.85 123.634C183.847 123.59 183.845 123.547 183.843 123.504C183.84 123.461 183.838 123.424 183.836 123.395C183.836 123.363 183.836 123.336 183.836 123.316V122.742C183.836 122.546 183.782 122.418 183.675 122.359C183.568 122.297 183.43 122.267 183.262 122.267H183.204V121.973ZM182.882 126.912C183.236 126.912 183.486 126.79 183.634 126.546C183.707 126.423 183.758 126.268 183.788 126.081C183.82 125.894 183.836 125.674 183.836 125.421C183.836 125.178 183.82 124.962 183.788 124.775C183.758 124.586 183.707 124.429 183.634 124.304C183.559 124.176 183.46 124.08 183.337 124.017C183.214 123.951 183.06 123.917 182.875 123.917C182.575 123.917 182.355 124.047 182.216 124.307C182.145 124.435 182.094 124.593 182.062 124.782C182.03 124.969 182.014 125.184 182.014 125.428C182.014 125.925 182.081 126.296 182.216 126.542C182.35 126.789 182.572 126.912 182.882 126.912ZM187.127 123.818C186.87 123.818 186.699 123.887 186.615 124.023C186.53 124.158 186.488 124.344 186.488 124.581C186.295 124.581 186.146 124.548 186.044 124.481C185.944 124.415 185.894 124.301 185.894 124.14C185.894 124.019 185.927 123.916 185.993 123.832C186.059 123.748 186.15 123.678 186.266 123.624C186.38 123.571 186.513 123.532 186.666 123.507C186.819 123.482 186.982 123.47 187.155 123.47C187.369 123.47 187.556 123.491 187.715 123.535C187.875 123.576 188.008 123.644 188.115 123.74C188.329 123.931 188.437 124.244 188.437 124.68V126.495C188.437 126.681 188.468 126.812 188.532 126.888C188.596 126.961 188.709 126.997 188.871 126.997H188.891V127.291H187.944L187.835 126.689H187.777C187.674 126.826 187.575 126.945 187.479 127.045C187.384 127.145 187.274 127.223 187.151 127.277C187.028 127.332 186.873 127.359 186.687 127.359C186.532 127.359 186.387 127.337 186.252 127.291C186.12 127.245 186.006 127.177 185.911 127.086C185.813 126.993 185.736 126.876 185.682 126.737C185.627 126.598 185.6 126.433 185.6 126.242C185.6 125.87 185.732 125.595 185.996 125.415C186.26 125.235 186.66 125.137 187.196 125.121L187.777 125.1V124.68C187.777 124.502 187.761 124.349 187.729 124.222C187.699 124.092 187.638 123.993 187.544 123.924C187.453 123.854 187.314 123.818 187.127 123.818ZM186.28 126.276C186.28 126.711 186.469 126.929 186.847 126.929C187.134 126.929 187.361 126.841 187.527 126.666C187.694 126.488 187.777 126.251 187.777 125.955V125.387L187.329 125.408C186.946 125.424 186.673 125.503 186.509 125.647C186.427 125.718 186.368 125.806 186.331 125.914C186.297 126.018 186.28 126.139 186.28 126.276Z" fill="#09357A"/>
<path d="M102.928 68.7542L120.713 54.1288L124.2 54.5682M72.689 76.78L82.2792 77.9884L101.3 62.927L102.695 51.8585L118.77 39.089L129.232 40.4072L147.271 26.1098M148.188 18.8279L126.512 36.2179L123.524 43.5347L107.923 54.8845M82.4013 67.6473L95.1665 57.7156L96.1942 49.5599L116.341 34.9362L121.899 35.3407L148.739 14.4587M146.5 32.2266L139.59 37.8657L138.929 43.1086" stroke="#09357A"/>
<path d="M102.196 162.183L120.308 176.929L123.742 176.397M72.0005 154.548L81.4432 153.083L100.793 168.253L102.567 179.683L118.922 192.545L129.223 190.947L147.575 205.348M148.742 212.867L126.682 195.345L123.466 187.836L107.631 176.433M81.9323 163.788L94.9123 173.786L96.2193 182.208L116.667 196.9L122.151 196.357L149.442 217.379M146.595 199.032L139.559 193.347L138.719 187.933" stroke="#09357A"/>
<circle cx="81.5" cy="68.791" r="1.5" fill="#09357A"/>
<circle cx="72.5" cy="76.791" r="1" fill="white" stroke="#09357A"/>
<circle cx="71.5" cy="154.791" r="1" fill="#D9D9D9" stroke="#09357A"/>
<circle cx="101.5" cy="163.791" r="1" fill="#D9D9D9" stroke="#09357A"/>
<circle cx="81.5" cy="164.791" r="1.5" fill="#09357A"/>
<circle cx="106.5" cy="177.791" r="1.5" fill="#09357A"/>
<circle cx="102.5" cy="68.791" r="1.5" fill="#09357A"/>
<circle cx="107.5" cy="54.791" r="1" fill="white" stroke="#09357A"/>
<path fill-rule="evenodd" clip-rule="evenodd" d="M186.126 157.389L145.566 197.949L148.413 217.929L206.106 160.236L186.126 157.389Z" fill="#0092CF"/>
<path fill-rule="evenodd" clip-rule="evenodd" d="M186.126 74.8303L145.566 34.2704L148.413 14.2908L206.106 71.9833L186.126 74.8303Z" fill="#0092CF"/>
<path d="M208.5 77.291L191.583 80.2526L226.583 116.383L191 151.922L210.25 154.291L247 116.383L208.5 77.291Z" fill="#005DAA"/>
</svg>
